# xmcd CD database file generated by OrangeCD 6.2
#
# Track frame offsets:
#	182
#	18782
#	38657
#	53657
#	73457
#	100832
#	117860
#	137957
#	157457
#
# Disc length: 2433 seconds
#
# Revision: 1
# Processed by: cddbd v1.5.2PL0 Copyright (c) Steve Scherf et al.
# Submitted via: OrangeCD 6.2
#
DISCID=7d097f09
DTITLE=Tim Gaze - Blue Sierra
DYEAR=1998
DGENRE=Blues
TTITLE0=Easy Mama
TTITLE1=High Rollin'
TTITLE2=Let It Rain
TTITLE3=Follow My Heart
TTITLE4=Say Goodbye
TTITLE5=Pick Up The Thread
TTITLE6=Five Aces
TTITLE7=Hey You
TTITLE8=Into This World
EXTD=
EXTT0=
EXTT1=
EXTT2=
EXTT3=
EXTT4=
EXTT5=
EXTT6=
EXTT7=
EXTT8=
PLAYORDER=
